<svg xmlns="http://www.w3.org/2000/svg" version="1.1" xmlns:xlink="http://www.w3.org/1999/xlink" xmlns:svgjs="http://svgjs.dev/svgjs" width="100%" height="100%" viewBox="0 0 1000 600"><rect width="1000" height="600" x="0" y="0" fill="#ccf381"/><g><circle r="166.66666666666666" cx="322.7697092692057" cy="344.99191980307546" fill="#4831d4" transform="matrix(0.8007531041238394,0,0,0.8007531041238394,0,23.74663354496832)"/><path d="M323.0287921905637 419.9919146860113L323.0287921905637 419.9919146860113Q304.19736694631877 419.9919146860113 296.38054892040583 413.80360041549676Q288.56373089449283 407.5856769857933 287.94193855152247 393.3436714158533L287.94193855152247 393.3436714158533Q287.3201462085521 378.9832292091572 287.94193855152247 364.50435036570474L287.94193855152247 364.50435036570474L302.00628916632803 364.50435036570474Q301.5917609376811 371.78820352621455 301.5917609376811 380.16759557671975Q301.5917609376811 388.54698762722495 302.00628916632803 395.7420133101676L302.00628916632803 395.7420133101676Q302.53925403173116 401.75267262554763 307.21750118360336 404.62476106688683Q311.8957483354755 407.49684950822603 323.0287921905637 407.49684950822603L323.0287921905637 407.49684950822603Q333.86574445376124 407.49684950822603 338.63281908320056 404.62476106688683Q343.429502871829 401.75267262554763 343.429502871829 395.7420133101676L343.429502871829 395.7420133101676L343.429502871829 269.9919142342113L357.90838171528145 269.9919142342113L357.90838171528145 393.3436714158533Q357.90838171528145 407.5856769857933 349.9435178934232 413.80360041549676Q341.9786540715649 419.9919146860113 323.0287921905637 419.9919146860113Z " fill="#ccf381" transform="matrix(0.8007531041238394,0,0,0.8007531041238394,0,23.74663354496832)"/><path d="M608.1674640655636 419.9919146860113L608.1674640655636 419.9919146860113Q589.3360388213188 419.9919146860113 581.5192207954058 413.80360041549676Q573.7024027694928 407.5856769857933 573.0806104265224 393.3436714158533L573.0806104265224 393.3436714158533Q572.458818083552 378.9832292091572 573.0806104265224 364.50435036570474L573.0806104265224 364.50435036570474L587.144961041328 364.50435036570474Q586.7304328126811 371.78820352621455 586.7304328126811 380.16759557671975Q586.7304328126811 388.54698762722495 587.144961041328 395.7420133101676L587.144961041328 395.7420133101676Q587.6779259067312 401.75267262554763 592.3561730586033 404.62476106688683Q597.0344202104756 407.49684950822603 608.1674640655636 407.49684950822603L608.1674640655636 407.49684950822603Q619.0044163287613 407.49684950822603 623.7714909582006 404.62476106688683Q628.568174746829 401.75267262554763 628.568174746829 395.7420133101676L628.568174746829 395.7420133101676L628.568174746829 269.9919142342113L643.0470535902815 269.9919142342113L643.0470535902815 393.3436714158533Q643.0470535902815 407.5856769857933 635.0821897684232 413.80360041549676Q627.1173259465648 419.9919146860113 608.1674640655636 419.9919146860113ZM688.6451587414406 419.87347804925497L688.6451587414406 419.87347804925497Q671.8863746404302 419.87347804925497 665.372359618836 414.45500191765626Q658.8583445972419 409.06613494524646 658.3549888910278 396.7783338817848L658.3549888910278 396.7783338817848Q658.1477247767043 393.5509355301768 658.0885064583262 389.52408988046403Q658.029288139948 385.5268533899404 658.4438163685949 382.50671915265576L658.4438163685949 382.50671915265576L670.6131807953003 382.50671915265576Q670.4059166809769 387.3034029412842 670.4651349993551 391.30063943180784Q670.5243533177331 395.29787592233157 670.6131807953003 398.11074604529273L670.6131807953003 398.11074604529273Q670.7316174320566 403.85492292797113 674.6400264450131 406.0460007079619Q678.5484354579696 408.2074693287636 688.6451587414406 408.2074693287636L688.6451587414406 408.2074693287636Q698.9491461392349 408.2074693287636 703.153646744082 406.0460007079619Q707.3581473489292 403.85492292797113 707.683848100009 398.11074604529273L707.683848100009 398.11074604529273Q708.0095488510887 394.587256101794 708.0983763286558 392.86992486882826Q708.216812965412 391.1525936358626 708.0983763286558 387.9251952842546L708.0983763286558 387.9251952842546Q707.8022847367652 382.6251557894121 705.2855062056947 379.6938490296947Q702.7983368338133 376.7921514291664 694.4781631016862 375.54856674322565L694.4781631016862 375.54856674322565L682.2791895157917 372.7356966202646Q672.9226952120474 370.7518829545973 667.8299198315283 367.73174871731266Q662.7075352918201 364.7116144800281 660.6348941485857 359.8557123730216Q658.5622530053512 355.02941942520414 658.1477247767043 347.627129627938L658.1477247767043 347.627129627938Q657.8220240256245 343.89637557011594 658.6510804829184 339.4253925325672L658.6510804829184 339.4253925325672Q658.8583445972419 326.81189071802584 665.4611870964031 321.393414586427Q672.0936387547536 316.0045476140173 689.5630426763015 316.0045476140173L689.5630426763015 316.0045476140173Q706.3218267773119 316.0045476140173 712.8358417989061 321.30458710885983Q719.3498568205002 326.60462660370234 719.9716491634706 338.8036001895968L719.9716491634706 338.8036001895968Q719.9716491634706 341.91256190444864 719.9124308450924 345.90979839497226Q719.8532125267143 349.936644044685 719.5571209348237 352.95677828196955L719.5571209348237 352.95677828196955L706.9436191202823 352.95677828196955Q707.4765839856855 349.31485170171464 707.4173656673073 344.6069953906535Q707.3581473489292 339.92874823878134 707.1508832346058 337.3231422301437L707.1508832346058 337.3231422301437Q707.0620557570386 331.8158386209777 703.3609108584055 329.7431974777432Q699.6597659597725 327.6409471753196 689.5630426763015 327.6409471753196L689.5630426763015 327.6409471753196Q679.3774919152634 327.6409471753196 675.6763470166304 329.7431974777432Q671.9752021179974 331.8158386209777 671.5606738893505 337.3231422301437L671.5606738893505 337.3231422301437Q671.4718464117832 339.92874823878134 671.2645822974598 341.646079471747Q671.0573181831363 343.36341070471275 671.1461456607035 346.3835449419973L671.1461456607035 346.3835449419973Q671.4718464117832 350.0254715222522 672.2416845506989 352.83834164521335Q673.0115226896146 355.6512117681744 675.7651744941975 357.48697963789647Q678.5484354579696 359.2931383484294 684.7959680468622 360.24063144247947L684.7959680468622 360.24063144247947L696.4323676081644 362.63897333679364Q709.1346969002731 365.21497018624217 714.9677012605188 370.69266463621915Q720.8007056207643 376.170359086196 720.8007056207643 387.184966304528L720.8007056207643 387.184966304528Q720.8007056207643 389.494480721275 720.7414873023863 392.1000867299127Q720.6822689840081 394.6760835793612 720.4750048696847 397.0744254736755L720.4750048696847 397.0744254736755Q719.7643850491472 409.27339905956995 712.8358417989061 414.57343855441246Q705.907298548665 419.87347804925497 688.6451587414406 419.87347804925497ZM760.7730705260012 419.7846505716878L760.7730705260012 419.7846505716878Q748.0707412338927 419.7846505716878 741.9712544409454 414.78070266873596Q735.9013768071873 409.776754765784 734.8650562355699 399.176675776099L734.8650562355699 399.176675776099Q734.7466195988137 397.0744254736755 734.5985738028684 395.0017843304409Q734.450528006923 392.9291431872064 734.6577921212465 390.9453295215391L734.6577921212465 390.9453295215391Q735.3684119417841 381.677662695362 740.4611873223031 375.3709117880913Q745.5835718620112 369.0937700400096 759.8255774319512 363.8825580227344L759.8255774319512 363.8825580227344Q765.6585817921969 361.78030772031076 772.1133784954129 360.12219480572315Q778.568175198629 358.46408189113555 784.9341444242777 356.8947964541151L784.9341444242777 356.8947964541151L784.9341444242777 337.64884298122337Q784.9341444242777 332.55606760070424 781.0849537296994 330.0985073880119Q777.2061538759319 327.6409471753196 767.6423954578642 327.6409471753196L767.6423954578642 327.6409471753196Q759.3222217257371 327.6409471753196 754.9992844841337 329.7431974777432Q750.6763472425304 331.8158386209777 750.2618190138834 337.3231422301437L750.2618190138834 337.3231422301437Q750.05455489956 339.92874823878134 750.05455489956 344.78465034578784Q750.05455489956 349.6109432936053 750.2618190138834 352.95677828196955L750.2618190138834 352.95677828196955L737.2337889706951 352.95677828196955Q737.0265248563717 350.3511722733319 736.8192607420482 346.1762808276739Q736.6119966277247 342.0013893820158 736.9376973788045 338.8036001895968L736.9376973788045 338.8036001895968Q737.4706622442077 326.72306324045854 744.7841245639065 321.363805427238Q752.1271960427945 316.0045476140173 768.1753603232673 316.0045476140173L768.1753603232673 316.0045476140173Q784.9341444242777 316.0045476140173 791.4185502866828 321.8079428150739Q797.9325653082769 327.6409471753196 798.0510019450332 340.9650688103986L798.0510019450332 340.9650688103986L798.0510019450332 418.62989336331424L784.9341444242777 418.62989336331424L784.9341444242777 409.06613494524646L782.0028376645604 409.06613494524646Q779.3972316559227 414.24773780333277 774.5709387081052 417.0309987671048Q769.7150366010986 419.7846505716878 760.7730705260012 419.7846505716878ZM764.1189055143655 408.5331700798434L764.1189055143655 408.5331700798434Q779.101140064032 408.5331700798434 784.8157077875215 399.59120400474586L784.8157077875215 399.59120400474586L784.8157077875215 368.0278403092033Q779.8117598845697 369.0937700400096 774.5709387081052 370.48540052189566Q769.3005083724518 371.8770310037817 762.2239193262653 374.2753728980959L762.2239193262653 374.2753728980959Q753.7853089573821 377.41394377213675 751.0020479936101 381.4703985810385Q748.1891778706489 385.5268533899404 747.774649642002 390.9453295215391L747.774649642002 390.9453295215391Q747.8634771195692 392.51461495855955 747.9226954379474 394.3207736690925Q747.9819137563254 396.15654153881445 748.1891778706489 398.11074604529273L748.1891778706489 398.11074604529273Q748.8997976911864 403.11469394824456 753.1635166144117 405.83873659363843Q757.456844696826 408.5331700798434 764.1189055143655 408.5331700798434ZM830.621077053004 336.8197865239295L830.621077053004 418.62989336331424L817.1785187811688 418.62989336331424L817.1785187811688 317.33695977752524L830.621077053004 317.33695977752524L830.621077053004 326.81189071802584L833.8484754046121 326.81189071802584Q837.0758737562201 321.6006787007505 842.3166949326844 318.81741773697837Q847.5871252683378 316.0045476140173 855.6112074085743 316.0045476140173L855.6112074085743 316.0045476140173Q867.3660436066328 316.0045476140173 873.0806113301223 321.1565413129145Q878.8247882128007 326.30853501181167 878.8247882128007 338.3594628017609L878.8247882128007 338.3594628017609L878.8247882128007 418.62989336331424L865.5006665777219 418.62989336331424L865.5006665777219 337.2343147525765Q865.5006665777219 332.02310273530117 862.2140499077357 329.68397915936504Q858.9274332377495 327.3448555834289 851.6435800772397 327.3448555834289L851.6435800772397 327.3448555834289Q844.3597269167299 327.3448555834289 838.8524233075639 329.8320249553104Q833.3155105392088 332.34880348638086 830.621077053004 336.8197865239295L830.621077053004 336.8197865239295ZM929.7229328588023 419.87347804925497L929.7229328588023 419.87347804925497Q913.467504464006 419.87347804925497 907.8121550588946 414.45500191765626Q902.1271964945943 409.06613494524646 902.1271964945943 396.7783338817848L902.1271964945943 396.7783338817848L902.1271964945943 329.0029684980165L892.1489098478797 329.0029684980165L892.1489098478797 317.33695977752524L902.4528972456741 317.33695977752524L902.4528972456741 288.6160753641328L915.6585822439968 288.6160753641328L915.6585822439968 317.33695977752524L938.5760714563326 317.33695977752524L938.5760714563326 329.0029684980165L915.5697547664296 329.0029684980165L915.5697547664296 398.22918268204893Q915.5697547664296 403.9437504055384 917.9680966607439 406.1348281855291Q920.3368293958689 408.3259059655199 930.019024450693 408.3259059655199L930.019024450693 408.3259059655199Q933.9866517820276 408.3259059655199 936.1185112436402 408.17786016957456Q938.2503707052529 408.0002052144402 941.063240828214 407.911377736873L941.063240828214 407.911377736873L941.063240828214 419.0444215919612Q938.5760714563326 419.4589498206081 935.6447646966152 419.6662139349315Q932.7430670960869 419.87347804925497 929.7229328588023 419.87347804925497ZM982.6048911704711 419.87347804925497L982.6048911704711 419.87347804925497Q965.6388429551373 419.87347804925497 958.6510813865182 414.0404736890093Q951.6929289770881 408.2074693287636 951.159964111685 394.6760835793612L951.159964111685 394.6760835793612Q950.5381717687146 386.9777021902045 950.3309076543911 377.5619895680821Q950.1236435400676 368.14627694595964 950.3309076543911 358.55290936870273Q950.5381717687146 348.98915095063495 951.159964111685 341.17233292472196L951.159964111685 341.17233292472196Q951.6929289770881 327.6409471753196 958.7102997048963 321.8079428150739Q965.7276704327046 316.0045476140173 982.6048911704711 316.0045476140173L982.6048911704711 316.0045476140173Q999.6597668633723 316.0045476140173 1006.4994826360462 321.8079428150739Q1013.309589249531 327.6409471753196 1013.812944955745 341.17233292472196L1013.812944955745 341.17233292472196Q1014.4643464579044 348.9003234730678 1014.6716105722279 358.3160360951902Q1014.8788746865514 367.73174871731266 1014.6716105722279 377.2658979761914Q1014.4643464579044 386.77043807588103 1013.812944955745 394.6760835793612L1013.812944955745 394.6760835793612Q1013.309589249531 408.1186418511964 1006.4994826360462 414.01086452982025Q999.6597668633723 419.87347804925497 982.6048911704711 419.87347804925497ZM982.6048911704711 408.2074693287636L982.6048911704711 408.2074693287636Q992.168649588539 408.2074693287636 996.2251043974409 405.86834575282757Q1000.2815592063425 403.52922217689144 1000.6072599574225 398.11074604529273L1000.6072599574225 398.11074604529273Q1001.6435805290396 381.8849268096855 1001.6435805290396 367.93901283163615Q1001.6435805290396 353.9930988535868 1000.6072599574225 337.73767045879055L1000.6072599574225 337.73767045879055Q1000.2815592063425 332.23036684962455 996.3435410341971 329.9504615920666Q992.3759137028624 327.6409471753196 982.6048911704711 327.6409471753196L982.6048911704711 327.6409471753196Q972.804259478891 327.6409471753196 968.8070229883672 329.9504615920666Q964.8097864978436 332.23036684962455 964.4840857467639 337.73767045879055L964.4840857467639 337.73767045879055Q963.5365926527138 353.9930988535868 963.5069834935248 367.9982311500143Q963.4477651751466 381.9737542872527 964.4840857467639 398.11074604529273L964.4840857467639 398.11074604529273Q964.6913498610872 403.52922217689144 968.8958504659345 405.86834575282757Q973.1299602299706 408.2074693287636 982.6048911704711 408.2074693287636ZM1060.5658073152777 419.87347804925497L1060.5658073152777 419.87347804925497Q1043.8070232142672 419.87347804925497 1037.293008192673 414.45500191765626Q1030.808602330268 409.06613494524646 1030.2756374648648 396.7783338817848L1030.2756374648648 396.7783338817848Q1030.0683733505416 393.5509355301768 1030.009155032163 389.52408988046403Q1029.949936713785 385.5268533899404 1030.3644649424323 382.50671915265576L1030.3644649424323 382.50671915265576L1042.5634385283265 382.50671915265576Q1042.356174414003 387.3034029412842 1042.4153927323814 391.30063943180784Q1042.4450018915704 395.29787592233157 1042.5634385283265 398.11074604529273L1042.5634385283265 398.11074604529273Q1042.6522660058936 403.85492292797113 1046.5606750188504 406.0460007079619Q1050.4690840318067 408.2074693287636 1060.5658073152777 408.2074693287636L1060.5658073152777 408.2074693287636Q1070.8697947130722 408.2074693287636 1075.0742953179192 406.0460007079619Q1079.3084050819552 403.85492292797113 1079.604496673846 398.11074604529273L1079.604496673846 398.11074604529273Q1079.9301974249256 394.587256101794 1080.0190249024931 392.86992486882826Q1080.1374615392492 391.1525936358626 1080.0190249024931 387.9251952842546L1080.0190249024931 387.9251952842546Q1079.7229333106025 382.6251557894121 1077.235763938721 379.6938490296947Q1074.7189854076505 376.7921514291664 1066.3988116755236 375.54856674322565L1066.3988116755236 375.54856674322565L1054.229447248818 372.7356966202646Q1044.8433437858844 370.7518829545973 1039.7505684053654 367.73174871731266Q1034.6577930248463 364.7116144800281 1032.555542722423 359.8557123730216Q1030.4829015791884 355.02941942520414 1030.0683733505416 347.627129627938L1030.0683733505416 347.627129627938Q1029.742672599462 343.89637557011594 1030.6013382159445 339.4253925325672L1030.6013382159445 339.4253925325672Q1030.808602330268 326.81189071802584 1037.4114448294295 321.393414586427Q1044.0142873285909 316.0045476140173 1061.5133004093277 316.0045476140173L1061.5133004093277 316.0045476140173Q1078.2720845103381 316.0045476140173 1084.756490372743 321.30458710885983Q1091.2705053943373 326.60462660370234 1091.8922977373077 338.8036001895968L1091.8922977373077 338.8036001895968Q1091.8922977373077 341.91256190444864 1091.8330794189296 345.90979839497226Q1091.8034702597406 349.936644044685 1091.477769508661 352.95677828196955L1091.477769508661 352.95677828196955L1078.8938768533085 352.95677828196955Q1079.3972325595228 349.31485170171464 1079.3676234003337 344.6069953906535Q1079.3084050819552 339.92874823878134 1079.101140967632 337.3231422301437L1079.101140967632 337.3231422301437Q1078.9827043308755 331.8158386209777 1075.2815594322428 329.7431974777432Q1071.6100236927987 327.6409471753196 1061.5133004093277 327.6409471753196L1061.5133004093277 327.6409471753196Q1051.2981404891007 327.6409471753196 1047.5969955904675 329.7431974777432Q1043.9254598510233 331.8158386209777 1043.4813224631876 337.3231422301437L1043.4813224631876 337.3231422301437Q1043.3924949856205 339.92874823878134 1043.1852308712969 341.646079471747Q1042.9779667569733 343.36341070471275 1043.0667942345408 346.3835449419973L1043.0667942345408 346.3835449419973Q1043.3924949856205 350.0254715222522 1044.162333124536 352.83834164521335Q1044.961780422641 355.6512117681744 1047.7154322272236 357.48697963789647Q1050.4690840318067 359.2931383484294 1056.7166166206994 360.24063144247947L1056.7166166206994 360.24063144247947L1068.3826253411908 362.63897333679364Q1081.0849546332993 365.21497018624217 1086.8883498343557 370.69266463621915Q1092.7213541946016 376.170359086196 1092.7213541946016 387.184966304528L1092.7213541946016 387.184966304528Q1092.7213541946016 389.494480721275 1092.6917450354126 392.1000867299127Q1092.6325267170341 394.6760835793612 1092.425262602711 397.0744254736755L1092.425262602711 397.0744254736755Q1091.685033622984 409.27339905956995 1084.756490372743 414.57343855441246Q1077.8575562816914 419.87347804925497 1060.5658073152777 419.87347804925497Z " fill="#4831d4" transform="matrix(0.8007531041238394,0,0,0.8007531041238394,0,23.74663354496832)"/></g></svg>