<?xml version="1.0" standalone="no"?>
<!DOCTYPE svg PUBLIC "-//W3C//DTD SVG 20010904//EN"
 "http://www.w3.org/TR/2001/REC-SVG-20010904/DTD/svg10.dtd">
<svg version="1.0" xmlns="http://www.w3.org/2000/svg"
 width="1999.000000pt" height="1230.000000pt" viewBox="0 0 1999.000000 1230.000000"
 preserveAspectRatio="xMidYMid meet">

<g transform="translate(0.000000,1230.000000) scale(0.100000,-0.100000)"
fill="#000000" stroke="none">
<path d="M10297 7043 l-2 -5258 -22 -90 c-36 -157 -90 -239 -190 -293 -77 -40
-155 -59 -294 -72 -74 -6 -1395 -10 -3796 -10 -3998 0 -3768 -3 -3881 54 -71
36 -137 114 -164 194 l-23 67 3 1270 c2 699 -1 1538 -7 1865 -11 663 -12 672
-86 825 -49 102 -109 165 -215 225 -216 121 -542 287 -982 499 -260 125 -500
242 -533 258 -33 17 -70 34 -82 37 l-23 7 0 -3284 0 -3284 133 -18 c118 -15
303 -18 1802 -27 2122 -12 9821 -3 9920 11 96 15 152 30 205 57 107 55 151
124 188 294 15 68 17 536 22 5205 5 4881 6 5133 23 5197 36 134 105 195 255
226 69 14 412 16 3322 22 2477 5 3272 9 3360 19 63 7 115 13 116 14 5 5 623
1214 629 1230 7 16 -241 17 -4834 17 l-4841 0 -3 -5257z"/>
<path d="M5990 4206 c-294 -63 -610 -277 -771 -523 -64 -99 -89 -176 -89 -279
0 -321 279 -585 720 -680 103 -22 335 -30 454 -15 445 56 765 298 816 617 29
178 -62 371 -265 562 -144 137 -343 253 -515 302 -96 27 -260 35 -350 16z"/>
</g>
</svg>
